<svg id="Capa_1" enable-background="new 0 0 512 512" height="512" viewBox="0 0 512 512" width="512" xmlns="http://www.w3.org/2000/svg"><g><path d="m295.223 181.421-18.01 18.01 35.355 35.355 18.01-18.01 14.142 14.142c15.621 15.621 40.948 15.621 56.568 0l98.995-98.995c15.621-15.621 15.621-40.948 0-56.569l-63.64-63.64c-15.621-15.621-40.948-15.621-56.569 0l-98.995 98.995c-15.621 15.621-15.621 40.948 0 56.569zm162.635-84.853c5.858 5.858 5.858 15.355 0 21.213l-70.711 70.711c-2.929 2.929-6.768 4.394-10.606 4.394s-7.678-1.464-10.606-4.394c-5.858-5.858-5.858-15.355 0-21.213l70.711-70.711c5.856-5.858 15.354-5.858 21.212 0zm-134.351 28.285 70.711-70.711c5.857-5.858 15.355-5.858 21.213 0s5.858 15.355 0 21.213l-70.711 70.711c-2.929 2.929-6.768 4.394-10.606 4.394s-7.678-1.464-10.606-4.394c-5.858-5.858-5.858-15.355-.001-21.213z"/><path d="m76.094 196.302c33.195 33.195 87.013 33.195 120.208 0 33.195-33.194 33.195-87.013 0-120.208l-42.427-42.427c-25.459-25.458-61.939-37.62-97.58-32.526-6.484.926-11.724 5.985-12.724 12.675-.718 4.807 1.107 9.648 4.543 13.085l98.69 98.69c3.938 3.939 5.417 9.681 3.664 15.365-.208.674-.479 1.33-.808 1.954-2.777 5.267-7.888 8.288-13.462 8.288-4.007 0-7.773-1.561-10.607-4.394l-98.995-98.994c-4.017-4.018-9.959-5.418-15.35-3.624-5.39 1.797-9.302 6.485-10.105 12.109-5.092 35.642 7.068 72.121 32.527 97.58z"/><path d="m415.431 358.863c-15.621-15.621-40.948-15.621-56.568 0-15.621 15.621-15.621 40.948 0 56.568l84.853 84.853c15.621 15.621 40.948 15.621 56.568 0 15.621-15.621 15.621-40.948 0-56.568z"/><path d="m199.432 277.213-70.184 70.184c-11.647-1.28-23.749 2.535-32.679 11.465l-84.853 84.853c-15.621 15.621-15.621 40.948 0 56.568 15.621 15.621 40.948 15.621 56.569 0l84.853-84.853c8.93-8.93 12.746-21.031 11.465-32.679l70.184-70.184z"/><path d="m233.252 197.897c-4.426 6.961-9.667 13.549-15.737 19.619-6.019 6.019-12.59 11.286-19.596 15.759l125.328 125.328c3.386-7.602 8.175-14.726 14.402-20.953 6.142-6.141 13.232-10.982 20.929-14.426z"/></g></svg>