<svg id="Capa_1" enable-background="new 0 0 512 512" height="512" viewBox="0 0 512 512" width="512" xmlns="http://www.w3.org/2000/svg"><g><path d="m114.722 393.901h24.7v118.099h233.156v-118.099h24.7v-30h-282.556z"/><path d="m256 187.496c77.993-55.557 103.339-93.748 103.339-131.391 0-30.986-25.118-56.105-56.104-56.105-19.83 0-37.257 10.288-47.235 25.818-9.978-15.53-27.405-25.818-47.235-25.818-30.986 0-56.104 25.119-56.104 56.104 0 37.644 25.346 75.834 103.339 131.392z"/><path d="m153.299 135.947c-.718-.912-1.426-1.822-2.114-2.729-13.721-18.081-22.398-36.126-26.233-54.663-74.828 44.682-124.952 126.447-124.952 219.935v213.51h63.734v-213.51c0-68.415 35.745-128.466 89.565-162.543z"/><path d="m387.048 78.555c-3.835 18.536-12.512 36.582-26.233 54.662-.688.907-1.396 1.817-2.114 2.729 53.82 34.077 89.564 94.129 89.564 162.543v213.511h63.735v-213.51c0-93.488-50.124-175.253-124.952-219.935z"/></g></svg>