<svg id="filled_outline" height="512" viewBox="0 0 512 512" width="512" xmlns="http://www.w3.org/2000/svg" data-name="filled outline"><path d="m104 440h48v48h-48z" fill="#7a4742"/><path d="m360 440h48v48h-48z" fill="#7a4742"/><path d="m384 440h24v48h-24z" fill="#59251f"/><path d="m128 440h24v48h-24z" fill="#59251f"/><path d="m416 328h-320v-184.51a39.49 39.49 0 0 1 39.49-39.49h241.02a39.49 39.49 0 0 1 39.49 39.49z" fill="#912e23"/><path d="m128 376h256v80h-256z" fill="#912e23"/><path d="m144.053 392h223.894a16.053 16.053 0 0 1 16.053 16.053v31.259a16.688 16.688 0 0 1 -16.688 16.688h-222.624a16.688 16.688 0 0 1 -16.688-16.688v-31.259a16.053 16.053 0 0 1 16.053-16.053z" fill="#c44235"/><path d="m128 328h256v48h-256z" fill="#c44235"/><path d="m128 328h256a0 0 0 0 1 0 0v17.616a14.384 14.384 0 0 1 -14.384 14.384h-227.232a14.384 14.384 0 0 1 -14.384-14.384v-17.616a0 0 0 0 1 0 0z" fill="#ef705f"/><path d="m71.8 232h32.4a23.8 23.8 0 0 1 23.8 23.8v200.2a0 0 0 0 1 0 0h-56.2a23.8 23.8 0 0 1 -23.8-23.8v-176.4a23.8 23.8 0 0 1 23.8-23.8z" fill="#c44235"/><path d="m104.2 232h-16a23.8 23.8 0 0 1 23.8 23.8v200.2h16v-200.2a23.8 23.8 0 0 0 -23.8-23.8z" fill="#912e23"/><path d="m407.8 232h32.4a23.8 23.8 0 0 1 23.8 23.8v176.4a23.8 23.8 0 0 1 -23.8 23.8h-56.2a0 0 0 0 1 0 0v-200.2a23.8 23.8 0 0 1 23.8-23.8z" fill="#c44235"/><path d="m423.8 232h-16a23.8 23.8 0 0 0 -23.8 23.8v200.2h16v-200.2a23.8 23.8 0 0 1 23.8-23.8z" fill="#912e23"/><path d="m128 72h144v256h-144z" fill="#eac654"/><path d="m248 72v104a120 120 0 0 1 -120 120v32h144v-256z" fill="#e0b329"/><path d="m224 16a31.923 31.923 0 0 0 -24 10.868 31.991 31.991 0 1 0 -24 53.132h48a32 32 0 0 0 0-64zm-64 32a16 16 0 0 1 32 0v16h-16a16.019 16.019 0 0 1 -16-16zm64 16h-16v-16a16 16 0 1 1 16 16z" fill="#fcd3cd"/><path d="m224 184h160v144h-160z" fill="#16696d"/><path d="m368 184v39.675a88.324 88.324 0 0 1 -88.325 88.325h-55.675v16h160v-144z" fill="#074349"/><path d="m128 120h144v16h-144z" fill="#e0b329"/><path d="m224 152 24-24 32 32a24 24 0 0 1 24-24 24 24 0 0 1 24 24l32-32 24 24-80 80z" fill="#e5f1f9"/><path d="m224 184h160v40h-160z" fill="#30a5a5"/><path d="m368 184h16v40h-16z" fill="#16696d"/><path d="m224 224h160v16h-160z" fill="#074349"/><circle cx="208" cy="240" fill="#fcdd69" r="16"/><path d="m288 184h32v144h-32z" fill="#e5f1f9"/><path d="m288 224h32v16h-32z" fill="#afd9e8"/><path d="m128 72h144v48h-144z" fill="#fcdd69"/><path d="m248 72h24v48h-24z" fill="#eac654"/><path d="m192 195.051-18.994-2.474-12.806 14.244-3.517-18.829-17.504-7.778 16.821-9.163 1.988-19.051 13.912 13.166 18.733-3.996-8.223 17.3z" fill="#fcdd69"/><path d="m192 304.728-21.858-2.848-14.738 16.392-4.046-21.668-20.144-8.951 19.357-10.544 2.288-21.924 16.01 15.151 21.558-4.599-9.463 19.909z" fill="#fcdd69"/><path d="m120 72v26.589a47.678 47.678 0 0 0 -32 44.9v80.511h-16.2a31.832 31.832 0 0 0 -31.8 31.8v176.4a31.832 31.832 0 0 0 31.8 31.8h24.2v24a8 8 0 0 0 8 8h48a8 8 0 0 0 8-8v-24h192v24a8 8 0 0 0 8 8h48a8 8 0 0 0 8-8v-24h24.2a31.832 31.832 0 0 0 31.8-31.8v-176.4a31.832 31.832 0 0 0 -31.8-31.8h-16.2v-80.51a47.544 47.544 0 0 0 -47.49-47.49h-96.51v-24a8 8 0 0 0 -8-8h-20.3a31.978 31.978 0 0 0 -51.7-37.132 31.978 31.978 0 0 0 -51.695 37.132h-20.305a8 8 0 0 0 -8 8zm-16 71.49a31.622 31.622 0 0 1 16-27.415v112.144a31.6 31.6 0 0 0 -15.8-4.219h-.2zm-32.2 304.51a15.814 15.814 0 0 1 -15.8-15.8v-176.4a15.814 15.814 0 0 1 15.8-15.8h32.4a15.814 15.814 0 0 1 15.8 15.8v192.2zm72.2 32h-32v-16h32zm256 0h-32v-16h32zm-24-248v88h-48v-88zm-48-16v-24h48v24zm112.2 24a15.814 15.814 0 0 1 15.8 15.8v176.4a15.814 15.814 0 0 1 -15.8 15.8h-48.2v-192.2a15.814 15.814 0 0 1 15.8-15.8zm-160.2-128h96.51a31.525 31.525 0 0 1 31.49 31.49v80.51h-.2a31.6 31.6 0 0 0 -15.8 4.219v-44.219a8 8 0 0 0 -8-8h-12.686l18.343-18.343a8 8 0 0 0 0-11.314l-24-24a8 8 0 0 0 -11.314 0l-22.283 22.284a31.957 31.957 0 0 0 -52.06-5.748zm-5.657 53.657a8 8 0 0 0 13.657-5.657 16 16 0 0 1 32 0 8 8 0 0 0 13.657 5.657l26.343-26.344 12.686 12.687-24 24h-89.372l-24-24 12.686-12.687zm21.657 50.343v-24h16v24zm16 16v88h-16v-88zm-80-16v-24h48v24zm48 16v88h-48v-88zm-20.686-104h4.686v4.686zm-51.314-80a16 16 0 1 1 16 16h-16zm-32-16a16.019 16.019 0 0 1 16 16v16h-16a16 16 0 0 1 0-32zm-40 48h128v32h-128zm0 175.8v-68.245l13.591 6.04 2.744 14.694a8 8 0 0 0 13.814 3.88l9.994-11.115 14.824 1.929a8 8 0 0 0 7.958-11.937l-7.484-12.941 6.418-13.5a8 8 0 0 0 -8.9-11.258l-14.619 3.119-10.858-10.276a8 8 0 0 0 -13.455 4.981l-1.552 14.867-12.48 6.8v-44.838h100.691l-18.343 18.343a8 8 0 0 0 0 11.314l18.343 18.343h-12.686a8 8 0 0 0 -8 8v33.376a23.987 23.987 0 0 0 -23.958 40.53 8 8 0 0 0 -3.284.007l-17.445 3.722-12.955-12.261a8 8 0 0 0 -13.456 4.98l-1.851 17.746-7.051 3.836zm39.485-73.321 1.475 2.549-2.921-.379a7.994 7.994 0 0 0 -6.982 2.584l-1.969 2.189-.541-2.9a8 8 0 0 0 -4.615-5.841l-2.691-1.2 2.586-1.409a8 8 0 0 0 4.13-6.195l.306-2.929 2.138 2.025a8.008 8.008 0 0 0 7.168 2.013l2.881-.614-1.265 2.659a8 8 0 0 0 .3 7.444zm-1.446 107.176 2.92 5.049-5.784-.753a8 8 0 0 0 -6.983 2.584l-3.9 4.338-1.07-5.734a8 8 0 0 0 -4.617-5.842l-5.33-2.369 5.123-2.79a8 8 0 0 0 4.13-6.2l.606-5.8 4.236 4.009a8 8 0 0 0 7.168 2.014l5.706-1.218-2.5 5.27a8 8 0 0 0 .295 7.438zm-.76 20.7 17.687 2.3a8 8 0 0 0 7.959-11.937l-8.925-15.436 7.658-16.11a7.987 7.987 0 0 0 -.54-7.794 23.926 23.926 0 0 0 18.882 1.246v57.376h-51.391zm34.721-62.355a8 8 0 1 1 8-8 8.009 8.009 0 0 1 -8 8zm-72 50.534 8.266 3.673 3.274 17.534c.016.089.048.172.067.259h-11.607zm0 85.466h152v-16h-152v-32h240v32h-72v16h72v64h-240z"/></svg>